<svg version="1.1" xmlns="http://www.w3.org/2000/svg" viewBox="-2.4543303024120657 -3.903150225937142 5.480107733886607 7.7771695982185145" fill="none" stroke="black" stroke-width="0.6%" vector-effect="non-scaling-stroke">
    <path d="M -0.9605 -2.59487 L 0.15937 -2.6516 L 0.21564 -2.57718 L -1.26793 -2.50202 L -1.31858 -2.569 L -1.16695 -2.58364 Q -1.39 -2.63 -1.43864 -2.69621 Q -1.49 -2.77 -1.45433 -2.73481 Q -1.49 -2.77 -1.36338 -2.80396 Q -1.23 -2.84 -0.85599 -2.86135 L -0.03082 -2.90315 L 0.02545 -2.82873 L -0.78534 -2.78765 Q -1.05 -2.77 -1.1327 -2.74958 Q -1.21 -2.73 -1.18105 -2.7086 Q -1.21 -2.73 -1.16845 -2.67841 Q -1.13 -2.63 -0.9605 -2.59487 Z" />
    <path d="M 0.21564 -2.45083 L 0.21564 -2.57718" />
    <path d="M -1.26793 0.39573 L -1.26793 -2.50202" />
    <path d="M -1.25047 0.39485 L -1.26793 0.39573 L -1.31858 0.32875 L -1.31858 -2.569" />
    <path d="M -1.31858 0.27336 Q -1.39 0.27 -1.43864 0.20154 Q -1.49 0.13 -1.45433 0.16294 L -1.45433 -2.73481" />
    <path d="M 0.02545 -2.64482 L 0.02545 -2.82873" />
    <path d="M -1.1327 -2.64939 L -1.1327 -2.74958" />
    <path d="M -0.00583 -2.17903 L -0.00583 -2.36273 L -1.11966 -2.30591 L -1.17593 -2.38034 L 0.30764 -2.4555 L 0.35941 -2.38703 L 0.2009 -2.37359 Q 0.36 -2.34 0.44544 -2.28706 Q 0.47 -2.27 0.48426 -2.25349 Q 0.54 -2.18 0.4952 -2.22553 Q 0.54 -2.18 0.33646 -2.13704 Q 0.61 -2.08 0.66601 -2.0131 Q 0.72 -1.94 0.68065 -1.97666 Q 0.72 -1.94 0.58065 -1.90291 Q 0.44 -1.86 0.05857 -1.84323 L -0.73928 -1.80282 L -0.79555 -1.87724 L -0.00776 -1.91715 Q 0.37 -1.94 0.40416 -1.98631 Q 0.42 -2 0.40977 -2.0021 Q 0.42 -2 0.40102 -2.02402 Q 0.36 -2.07 0.1938 -2.10857 L -0.9275 -2.05176 L -0.98377 -2.12618 L -0.18448 -2.16667 Q 0.07 -2.18 0.16 -2.2046 Q 0.25 -2.23 0.22039 -2.25048 Q 0.25 -2.23 0.20928 -2.27761 Q 0.17 -2.33 -0.00583 -2.36273" />
    <path d="M -1.11966 -1.67613 L -1.11966 -2.30591" />
    <path d="M -1.17593 -1.67328 L -1.17593 -2.38034" />
    <path d="M 0.35941 -2.32906 L 0.35941 -2.38703" />
    <path d="M 0.58065 -1.75953 L 0.58065 -1.90291" />
    <path d="M -0.73928 -1.57317 L -0.73928 -1.80282" />
    <path d="M -0.79555 -1.57937 L -0.79555 -1.87724" />
    <path d="M 0.1938 -1.93212 L 0.1938 -2.10857" />
    <path d="M -0.9275 -1.60486 L -0.9275 -2.05176" />
    <path d="M -0.98377 -1.62649 L -0.98377 -2.12618" />
    <path d="M -1.25047 1.22824 L -1.25047 -1.66951 L -1.02908 -1.68072 Q -1.03 -1.67 -1.02998 -1.67549 Q -1.03 -1.67 -1.0199 -1.65279 Q -1.01 -1.64 -0.96644 -1.6186 Q -0.93 -1.6 -0.86849 -1.59072 Q -0.77 -1.57 -0.59344 -1.56254 L 0.80535 -1.79722 L 0.86527 -1.71796 L -0.23257 -1.54721 L 1.02424 -1.50772 L 1.0836 -1.4292 L -0.70184 -1.50257 Q -0.9 -1.51 -1.02533 -1.53757 Q -1.19 -1.57 -1.23884 -1.64228 Q -1.24 -1.65 -1.24581 -1.65545 L -1.25047 -1.66951" />
    <path d="M -1.02908 -1.66954 L -1.02908 -1.68072" />
    <path d="M 0.86527 -1.51271 L 0.86527 -1.71796" />
    <path d="M 1.0836 -1.37318 L 1.0836 -1.4292" />
    <path d="M -0.70184 1.39518 L -0.70184 -1.50257" />
    <path d="M -0.35918 1.40926 L -0.70184 1.39518 Q -0.9 1.39 -1.02533 1.36018 Q -1.19 1.33 -1.23884 1.25547 L -1.23884 -1.64228" />
    <path d="M -1.02533 1.36018 L -1.02533 -1.53757" />
    <path d="M -1.24581 1.2423 L -1.24581 -1.65545" />
    <path d="M -1.23884 1.25547 Q -1.24 1.25 -1.24581 1.2423 L -1.25047 1.22824" />
    <path d="M 0.81093 -1.09878 L 0.81093 -1.28248 L -0.30291 -1.22567 L -0.35918 -1.30009 L 1.1244 -1.37525 L 1.17616 -1.30678 L 1.01766 -1.29334 Q 1.18 -1.26 1.26219 -1.20682 Q 1.29 -1.19 1.30101 -1.17324 Q 1.35 -1.1 1.31195 -1.14528 Q 1.35 -1.1 1.15322 -1.05679 Q 1.43 -1 1.48277 -0.93285 Q 1.54 -0.86 1.4974 -0.89641 Q 1.54 -0.86 1.39741 -0.82266 Q 1.26 -0.78 0.87533 -0.76299 L 0.07748 -0.72257 L 0.02121 -0.79699 L 0.809 -0.8369 Q 1.18 -0.86 1.22091 -0.90606 Q 1.23 -0.92 1.22653 -0.92185 Q 1.23 -0.92 1.21778 -0.94377 Q 1.18 -0.99 1.01056 -1.02832 L -0.11075 -0.97151 L -0.16701 -1.04593 L 0.63227 -1.08643 Q 0.89 -1.1 0.97676 -1.12435 Q 1.06 -1.15 1.03714 -1.17023 Q 1.06 -1.15 1.02604 -1.19736 Q 0.99 -1.25 0.81093 -1.28248" />
    <path d="M -0.30291 1.67209 L -0.30291 -1.22567" />
    <path d="M -0.16701 1.66516 L -0.30291 1.67209 L -0.35918 1.59766 L -0.35918 -1.30009" />
    <path d="M 1.17616 -1.24881 L 1.17616 -1.30678" />
    <path d="M 1.39741 -0.66348 L 1.39741 -0.82266" />
    <path d="M 0.07748 2.17519 L 0.07748 -0.72257" />
    <path d="M 0.1692 2.17054 L 0.07748 2.17519 L 0.02121 2.10076 L 0.02121 -0.79699" />
    <path d="M 1.01056 -0.85187 L 1.01056 -1.02832" />
    <path d="M -0.11075 1.92624 L -0.11075 -0.97151" />
    <path d="M 0.02121 1.91956 L -0.11075 1.92624 L -0.16701 1.85182 L -0.16701 -1.04593" />
    <path d="M 1.3393 -0.39995 L 1.3393 -0.58365 L 0.22547 -0.52683 L 0.1692 -0.60126 L 1.65277 -0.67641 L 1.70454 -0.60795 L 1.54603 -0.59451 Q 1.71 -0.56 1.79057 -0.50798 Q 1.82 -0.49 1.82939 -0.4744 Q 1.88 -0.4 1.84033 -0.44645 Q 1.88 -0.4 1.68159 -0.35796 Q 1.96 -0.3 2.01114 -0.23402 Q 2.06 -0.16 2.02578 -0.19758 Q 2.06 -0.16 1.92578 -0.12383 Q 1.78 -0.08 1.4037 -0.06415 L 0.60585 -0.02373 L 0.54958 -0.09816 L 1.33737 -0.13807 Q 1.71 -0.16 1.74929 -0.20723 Q 1.76 -0.22 1.7549 -0.22302 Q 1.76 -0.22 1.74615 -0.24494 Q 1.71 -0.29 1.53893 -0.32948 L 0.41763 -0.27268 L 0.36136 -0.3471 L 1.16065 -0.38759 Q 1.42 -0.4 1.50513 -0.42552 Q 1.59 -0.45 1.56552 -0.4714 Q 1.59 -0.45 1.55441 -0.49853 Q 1.52 -0.55 1.3393 -0.58365" />
    <path d="M 0.22547 2.37092 L 0.22547 -0.52683" />
    <path d="M 0.36136 2.36399 L 0.22547 2.37092 L 0.1692 2.2965 L 0.1692 -0.60126" />
    <path d="M 1.70454 -0.54997 L 1.70454 -0.60795" />
    <path d="M 1.92578 2.77392 L 1.92578 -0.12383" />
    <path d="M 2.02578 2.70018 Q 2.06 2.73 1.92578 2.77392 Q 1.78 2.81 1.4037 2.8336 L 1.4037 -0.06415" />
    <path d="M 0.60585 2.87402 L 0.60585 -0.02373" />
    <path d="M 1.4037 2.8336 L 0.60585 2.87402 L 0.54958 2.7996 L 0.54958 -0.09816" />
    <path d="M 1.53893 -0.15304 L 1.53893 -0.32948" />
    <path d="M 0.41763 2.62507 L 0.41763 -0.27268" />
    <path d="M 0.54958 2.61839 L 0.41763 2.62507 L 0.36136 2.55065 L 0.36136 -0.3471" />
    <path d="M -1.43864 0.20154 L -1.43864 -2.69621" />
    <path d="M -0.78534 -2.60374 L -0.78534 -2.78765" />
    <path d="M 0.05857 -1.67193 L 0.05857 -1.84323" />
    <path d="M 0.40102 -1.98278 L 0.40102 -2.02402" />
    <path d="M 0.20928 -2.22783 L 0.20928 -2.27761" />
    <path d="M 0.87533 -0.63703 L 0.87533 -0.76299" />
    <path d="M 1.21778 -0.90253 L 1.21778 -0.94377" />
    <path d="M 1.02604 -1.14758 L 1.02604 -1.19736" />
    <path d="M 1.74615 -0.2037 L 1.74615 -0.24494" />
    <path d="M 1.55441 -0.44875 L 1.55441 -0.49853" />
    <path d="M 0.4952 -2.09978 L 0.4952 -2.22553" />
    <path d="M 0.68065 -1.7763 L 0.68065 -1.97666" />
    <path d="M 1.31195 -1.01953 L 1.31195 -1.14528" />
    <path d="M 1.4974 -0.66854 L 1.4974 -0.89641" />
    <path d="M 1.84033 -0.3207 L 1.84033 -0.44645" />
    <path d="M 2.02578 2.70018 L 2.02578 -0.19758" />
</svg>