<svg version="1.1" xmlns="http://www.w3.org/2000/svg" viewBox="-2.4543303024120657 -2.004346001561138 5.480107733886606 3.9985485940562357" fill="none" stroke="black" stroke-width="0.6%" vector-effect="non-scaling-stroke">
    <path d="M -0.9605 -0.897 L 0.15937 -0.91676 L 0.21564 -0.89084 L -1.26793 -0.86467 L -1.31858 -0.88799 L -1.16695 -0.89309 Q -1.39 -0.91 -1.43864 -0.93229 Q -1.49 -0.96 -1.45433 -0.94573 Q -1.49 -0.96 -1.36338 -0.96981 Q -1.23 -0.98 -0.85599 -0.98979 L -0.03082 -1.00435 L 0.02545 -0.97843 L -0.78534 -0.96413 Q -1.05 -0.96 -1.1327 -0.95087 Q -1.21 -0.94 -1.18105 -0.9366 Q -1.21 -0.94 -1.16845 -0.92609 Q -1.13 -0.91 -0.9605 -0.897 Z" />
    <path d="M 0.21564 -0.84685 L 0.21564 -0.89084" />
    <path d="M -1.26793 0.13126 L -1.26793 -0.86467" />
    <path d="M -1.25047 0.13095 L -1.26793 0.13126 L -1.31858 0.10794 L -1.31858 -0.88799" />
    <path d="M -1.31858 0.08865 Q -1.39 0.09 -1.43864 0.06364 Q -1.49 0.04 -1.45433 0.0502 L -1.45433 -0.94573" />
    <path d="M 0.02545 -0.91439 L 0.02545 -0.97843" />
    <path d="M -1.1327 -0.91599 L -1.1327 -0.95087" />
    <path d="M -0.00583 -0.75221 L -0.00583 -0.81617 L -1.11966 -0.79639 L -1.17593 -0.8223 L 0.30764 -0.84847 L 0.35941 -0.82463 L 0.2009 -0.81995 Q 0.36 -0.81 0.44544 -0.78982 Q 0.47 -0.78 0.48426 -0.77813 Q 0.54 -0.75 0.4952 -0.7684 Q 0.54 -0.75 0.33646 -0.73759 Q 0.61 -0.72 0.66601 -0.69443 Q 0.72 -0.67 0.68065 -0.68174 Q 0.72 -0.67 0.58065 -0.65606 Q 0.44 -0.64 0.05857 -0.63528 L -0.73928 -0.62121 L -0.79555 -0.64712 L -0.00776 -0.66102 Q 0.37 -0.67 0.40416 -0.6851 Q 0.42 -0.69 0.40977 -0.6906 Q 0.42 -0.69 0.40102 -0.69823 Q 0.36 -0.72 0.1938 -0.72767 L -0.9275 -0.70789 L -0.98377 -0.7338 L -0.18448 -0.7479 Q 0.07 -0.75 0.16 -0.76111 Q 0.25 -0.77 0.22039 -0.77708 Q 0.25 -0.77 0.20928 -0.78653 Q 0.17 -0.8 -0.00583 -0.81617" />
    <path d="M -1.11966 -0.5771 L -1.11966 -0.79639" />
    <path d="M -1.17593 -0.5761 L -1.17593 -0.8223" />
    <path d="M 0.35941 -0.80444 L 0.35941 -0.82463" />
    <path d="M 0.58065 -0.60613 L 0.58065 -0.65606" />
    <path d="M -0.73928 -0.54124 L -0.73928 -0.62121" />
    <path d="M -0.79555 -0.5434 L -0.79555 -0.64712" />
    <path d="M 0.1938 -0.66623 L 0.1938 -0.72767" />
    <path d="M -0.9275 -0.55228 L -0.9275 -0.70789" />
    <path d="M -0.98377 -0.55981 L -0.98377 -0.7338" />
    <path d="M -1.25047 0.42114 L -1.25047 -0.57479 L -1.02908 -0.57869 Q -1.03 -0.57 -1.02998 -0.57687 Q -1.03 -0.57 -1.0199 -0.56897 Q -1.01 -0.56 -0.96644 -0.55706 Q -0.93 -0.55 -0.86849 -0.54736 Q -0.77 -0.54 -0.59344 -0.53754 L 0.80535 -0.61926 L 0.86527 -0.59166 L -0.23257 -0.5322 L 1.02424 -0.51845 L 1.0836 -0.49111 L -0.70184 -0.51666 Q -0.9 -0.52 -1.02533 -0.52885 Q -1.19 -0.54 -1.23884 -0.56531 Q -1.24 -0.57 -1.24581 -0.56989 L -1.25047 -0.57479" />
    <path d="M -1.02908 -0.5748 L -1.02908 -0.57869" />
    <path d="M 0.86527 -0.52019 L 0.86527 -0.59166" />
    <path d="M 1.0836 -0.47161 L 1.0836 -0.49111" />
    <path d="M -0.70184 0.47927 L -0.70184 -0.51666" />
    <path d="M -0.35918 0.48417 L -0.70184 0.47927 Q -0.9 0.48 -1.02533 0.46708 Q -1.19 0.45 -1.23884 0.43062 L -1.23884 -0.56531" />
    <path d="M -1.02533 0.46708 L -1.02533 -0.52885" />
    <path d="M -1.24581 0.42604 L -1.24581 -0.56989" />
    <path d="M -1.23884 0.43062 Q -1.24 0.43 -1.24581 0.42604 L -1.25047 0.42114" />
    <path d="M 0.81093 -0.37606 L 0.81093 -0.44002 L -0.30291 -0.42024 L -0.35918 -0.44616 L 1.1244 -0.47233 L 1.17616 -0.44849 L 1.01766 -0.44381 Q 1.18 -0.43 1.26219 -0.41368 Q 1.29 -0.41 1.30101 -0.40199 Q 1.35 -0.38 1.31195 -0.39225 Q 1.35 -0.38 1.15322 -0.36144 Q 1.43 -0.34 1.48277 -0.31828 Q 1.54 -0.29 1.4974 -0.30559 Q 1.54 -0.29 1.39741 -0.27992 Q 1.26 -0.27 0.87533 -0.25914 L 0.07748 -0.24506 L 0.02121 -0.27098 L 0.809 -0.28487 Q 1.18 -0.29 1.22091 -0.30896 Q 1.23 -0.31 1.22653 -0.31445 Q 1.23 -0.31 1.21778 -0.32209 Q 1.18 -0.34 1.01056 -0.35153 L -0.11075 -0.33175 L -0.16701 -0.35766 L 0.63227 -0.37176 Q 0.89 -0.38 0.97676 -0.38497 Q 1.06 -0.39 1.03714 -0.40094 Q 1.06 -0.39 1.02604 -0.41039 Q 0.99 -0.43 0.81093 -0.44002" />
    <path d="M -0.30291 0.57569 L -0.30291 -0.42024" />
    <path d="M -0.16701 0.57327 L -0.30291 0.57569 L -0.35918 0.54977 L -0.35918 -0.44616" />
    <path d="M 1.17616 -0.4283 L 1.17616 -0.44849" />
    <path d="M 1.39741 -0.22449 L 1.39741 -0.27992" />
    <path d="M 0.07748 0.75087 L 0.07748 -0.24506" />
    <path d="M 0.1692 0.74925 L 0.07748 0.75087 L 0.02121 0.72495 L 0.02121 -0.27098" />
    <path d="M 1.01056 -0.29009 L 1.01056 -0.35153" />
    <path d="M -0.11075 0.66418 L -0.11075 -0.33175" />
    <path d="M 0.02121 0.66186 L -0.11075 0.66418 L -0.16701 0.63827 L -0.16701 -0.35766" />
    <path d="M 1.3393 -0.13273 L 1.3393 -0.19669 L 0.22547 -0.17691 L 0.1692 -0.20282 L 1.65277 -0.22899 L 1.70454 -0.20515 L 1.54603 -0.20047 Q 1.71 -0.19 1.79057 -0.17034 Q 1.82 -0.16 1.82939 -0.15865 Q 1.88 -0.13 1.84033 -0.14892 Q 1.88 -0.13 1.68159 -0.11811 Q 1.96 -0.1 2.01114 -0.07495 Q 2.06 -0.05 2.02578 -0.06226 Q 2.06 -0.05 1.92578 -0.03658 Q 1.78 -0.02 1.4037 -0.0158 L 0.60585 -0.00173 L 0.54958 -0.02764 L 1.33737 -0.04154 Q 1.71 -0.05 1.74929 -0.06562 Q 1.76 -0.07 1.7549 -0.07112 Q 1.76 -0.07 1.74615 -0.07875 Q 1.71 -0.1 1.53893 -0.10819 L 0.41763 -0.08841 L 0.36136 -0.11433 L 1.16065 -0.12842 Q 1.42 -0.13 1.50513 -0.14163 Q 1.59 -0.15 1.56552 -0.15761 Q 1.59 -0.15 1.55441 -0.16705 Q 1.52 -0.18 1.3393 -0.19669" />
    <path d="M 0.22547 0.81902 L 0.22547 -0.17691" />
    <path d="M 0.36136 0.81661 L 0.22547 0.81902 L 0.1692 0.79311 L 0.1692 -0.20282" />
    <path d="M 1.70454 -0.18497 L 1.70454 -0.20515" />
    <path d="M 1.92578 0.95935 L 1.92578 -0.03658" />
    <path d="M 2.02578 0.93367 Q 2.06 0.95 1.92578 0.95935 Q 1.78 0.97 1.4037 0.98013 L 1.4037 -0.0158" />
    <path d="M 0.60585 0.9942 L 0.60585 -0.00173" />
    <path d="M 1.4037 0.98013 L 0.60585 0.9942 L 0.54958 0.96829 L 0.54958 -0.02764" />
    <path d="M 1.53893 -0.04675 L 1.53893 -0.10819" />
    <path d="M 0.41763 0.90752 L 0.41763 -0.08841" />
    <path d="M 0.54958 0.90519 L 0.41763 0.90752 L 0.36136 0.8816 L 0.36136 -0.11433" />
    <path d="M -1.43864 0.06364 L -1.43864 -0.93229" />
    <path d="M -0.78534 -0.90009 L -0.78534 -0.96413" />
    <path d="M 0.05857 -0.57563 L 0.05857 -0.63528" />
    <path d="M 0.40102 -0.68387 L 0.40102 -0.69823" />
    <path d="M 0.20928 -0.7692 L 0.20928 -0.78653" />
    <path d="M 0.87533 -0.21528 L 0.87533 -0.25914" />
    <path d="M 1.21778 -0.30773 L 1.21778 -0.32209" />
    <path d="M 1.02604 -0.39305 L 1.02604 -0.41039" />
    <path d="M 1.74615 -0.06439 L 1.74615 -0.07875" />
    <path d="M 1.55441 -0.14972 L 1.55441 -0.16705" />
    <path d="M 0.4952 -0.72461 L 0.4952 -0.7684" />
    <path d="M 0.68065 -0.61198 L 0.68065 -0.68174" />
    <path d="M 1.31195 -0.34847 L 1.31195 -0.39225" />
    <path d="M 1.4974 -0.22625 L 1.4974 -0.30559" />
    <path d="M 1.84033 -0.10513 L 1.84033 -0.14892" />
    <path d="M 2.02578 0.93367 L 2.02578 -0.06226" />
</svg>